<?xml version="1.0" encoding="utf-8"?><svg viewBox="0 0 299 48" xmlns="http://www.w3.org/2000/svg" xmlns:xlink="http://www.w3.org/1999/xlink"><style>:root>svg{display:none}:root>svg:target{display:block}</style><svg viewBox="0 0 42 23" id="favicon" xmlns="http://www.w3.org/2000/svg"><path d="M10.686 22.18c5.901 0 10.685-4.784 10.685-10.685 0-5.902-4.784-10.686-10.685-10.686C4.784.809 0 5.593 0 11.495 0 17.396 4.784 22.18 10.686 22.18z"/><path d="M30.988 22.18c5.902 0 10.686-4.784 10.686-10.685C41.674 5.593 36.89.809 30.988.809c-5.901 0-10.685 4.784-10.685 10.686 0 5.901 4.784 10.685 10.685 10.685z"/></svg><svg viewBox="0 0 299 18" id="line-wave" xmlns="http://www.w3.org/2000/svg"><path d="M296 6.032c-19.093 6.642-44.437 14.816-61.355 2.889-14.938-10.532-38.51-5.05-59.306 1.324-6.223 1.908-17.213 4.983-26.408 4.293-8.573-.643-15.947-5.233-23.449-6.901-15.529-3.453-41.297 1.772-56.46 3.45C46.838 13.543 26.225 15.79 3 14.7"/></svg><svg viewBox="0 0 48 48" id="vk" xmlns="http://www.w3.org/2000/svg"><g filter="url(#cfilter0_i_29_52)"><rect width="48" height="48" rx="10"/></g><rect x=".5" y=".5" width="47" height="47" rx="9.5"/><path d="M25.532 32.566c-9.271 0-14.56-6.356-14.78-16.933h4.644c.153 7.763 3.576 11.051 6.288 11.73v-11.73h4.373v6.695c2.678-.288 5.492-3.338 6.44-6.694h4.374c-.73 4.135-3.78 7.186-5.95 8.44 2.17 1.017 5.645 3.678 6.967 8.492h-4.814c-1.034-3.22-3.61-5.712-7.017-6.051v6.05h-.525z"/><defs><filter id="cfilter0_i_29_52" x="0" y="0" width="48" height="52" filterUnits="userSpaceOnUse" color-interpolation-filters="sRGB"><feFlood flood-opacity="0" result="BackgroundImageFix"/><feBlend in="SourceGraphic" in2="BackgroundImageFix" result="shape"/><feColorMatrix in="SourceAlpha" values="0 0 0 0 0 0 0 0 0 0 0 0 0 0 0 0 0 0 127 0" result="hardAlpha"/><feOffset dy="4"/><feGaussianBlur stdDeviation="7.75"/><feComposite in2="hardAlpha" operator="arithmetic" k2="-1" k3="1"/><feColorMatrix values="0 0 0 0 1 0 0 0 0 1 0 0 0 0 1 0 0 0 0.05 0"/><feBlend in2="shape" result="effect1_innerShadow_29_52"/></filter></defs></svg><svg viewBox="0 0 49 48" id="youtube" xmlns="http://www.w3.org/2000/svg"><g filter="url(#dfilter0_i_29_45)"><rect x=".5" width="48" height="48" rx="10"/></g><rect x="1" y=".5" width="47" height="47" rx="9.5"/><path fill-rule="evenodd" clip-rule="evenodd" d="M21.8 27.513v-7.534c2.674 1.259 4.745 2.474 7.195 3.785-2.02 1.12-4.521 2.378-7.195 3.749zm14.903-11.28c-.46-.608-1.247-1.08-2.084-1.238-2.46-.467-17.81-.468-20.268 0a3.567 3.567 0 00-1.783.903c-2.163 2.008-1.486 12.777-.964 14.521.22.755.503 1.3.86 1.657.46.472 1.09.798 1.813.944 2.026.419 12.462.653 20.3.063a3.516 3.516 0 001.864-.955c2-2 1.864-13.373.262-15.895z"/><defs><filter id="dfilter0_i_29_45" x=".5" y="0" width="48" height="52" filterUnits="userSpaceOnUse" color-interpolation-filters="sRGB"><feFlood flood-opacity="0" result="BackgroundImageFix"/><feBlend in="SourceGraphic" in2="BackgroundImageFix" result="shape"/><feColorMatrix in="SourceAlpha" values="0 0 0 0 0 0 0 0 0 0 0 0 0 0 0 0 0 0 127 0" result="hardAlpha"/><feOffset dy="4"/><feGaussianBlur stdDeviation="7.75"/><feComposite in2="hardAlpha" operator="arithmetic" k2="-1" k3="1"/><feColorMatrix values="0 0 0 0 1 0 0 0 0 1 0 0 0 0 1 0 0 0 0.05 0"/><feBlend in2="shape" result="effect1_innerShadow_29_45"/></filter></defs></svg></svg>