<?xml version="1.0" encoding="utf-8"?><svg viewBox="0 0 128 126" xmlns="http://www.w3.org/2000/svg" xmlns:xlink="http://www.w3.org/1999/xlink"><style>:root>svg{display:none}:root>svg:target{display:block}</style><svg viewBox="0 0 60 60" id="analytics" xmlns="http://www.w3.org/2000/svg"><rect width="60" height="60" rx="10"/><path fill-rule="evenodd" clip-rule="evenodd" d="M17.417 16.51a.906.906 0 100 1.813h2.416v9.364c0 3.703 0 5.554 1.214 6.704 1.213 1.15 3.166 1.15 7.072 1.15h.475v4.274l-1.916.958a.906.906 0 10.81 1.62l2.012-1.005 2.011 1.006a.906.906 0 00.811-1.621l-1.916-.958v-4.273h.475c3.906 0 5.859 0 7.072-1.15 1.214-1.15 1.214-3.002 1.214-6.705v-9.364h2.416a.906.906 0 000-1.813H17.417zm16.349 8.12a.906.906 0 010 1.282l-1.592 1.591a5.886 5.886 0 01-.546.504c-.212.162-.517.336-.92.336s-.707-.174-.92-.336a5.886 5.886 0 01-.546-.504l-.737-.737-.213-.212c-.06.059-.13.127-.214.212l-1.562 1.562a.906.906 0 11-1.282-1.281l1.592-1.592a5.86 5.86 0 01.546-.503c.212-.163.517-.337.92-.337s.707.174.92.337c.18.138.37.328.545.503l.738.737c.084.085.153.154.213.212.06-.058.13-.127.214-.212l1.562-1.562a.906.906 0 011.282 0z"/></svg><svg viewBox="0 0 128 126" id="favicon" xmlns="http://www.w3.org/2000/svg"><path d="M75.055 96.29C64.873 92.51 54.4 91.927 44.8 94.545c-6.69 1.745-13.09 5.236-18.91 9.6l-4.072 3.491-1.164 1.164 2.619 2.327c.29 0 .29.291.582.582.581.581 1.163.872 2.036 1.454l1.745 1.164 1.746-1.455c.29-.291.872-.872 1.454-1.163 5.237-4.364 11.055-7.273 17.164-8.728 7.855-2.036 16.29-1.745 24.727 1.455 6.982 2.618 21.237 5.818 38.4-1.455l.582-.291.873-.872c0-.291.291-.291.582-.582 1.454-1.746 2.909-3.491 4.072-5.527l5.819-9.019-9.31 5.237c-13.672 7.563-26.181 9.018-38.69 4.363zM35.2 64.873c7.854-2.036 16.29-1.745 24.727 1.455 9.31 3.49 33.164 8.436 59.928-15.71l4.363-4.363.291-.29 1.164-1.164-.582-1.455c-.291-1.163-.873-2.618-1.455-4.073l-1.454-4.072-2.909 2.909c-.291.582-.873.873-1.455 1.454-12.8 13.091-32.582 26.473-55.273 18.328-10.181-3.782-20.654-4.364-30.254-1.746-9.31 2.618-17.455 7.564-25.018 14.546V70.4l-4.364 4.654c0 .291-.29.291-.582.582l-.872.873.29 1.163c.291 1.455.873 2.91 1.164 4.364l1.746 4.655 2.909-3.782c.29-.582.872-.873 1.163-1.455 6.11-5.527 14.546-13.382 26.473-16.582z"/><path d="M6.982 59.636c6.69-6.982 14.254-11.346 22.4-13.673 7.854-2.036 16.29-1.745 24.727 1.454 26.182 9.6 48.873-6.109 58.764-14.545l3.782-3.782 1.454-1.163-1.164-1.746c-.872-.873-1.454-2.036-2.327-3.2l-1.745-2.327-2.037 2.036-1.163 1.164C97.455 35.49 78.546 47.417 57.018 39.272c-10.182-3.782-20.654-4.364-30.254-1.745-6.11 1.745-11.928 4.654-17.746 8.436L2.91 50.908l-1.454 1.455-.582.582v.873C.582 55.854.582 57.89.29 59.636L0 66.908l4.945-5.236c.582-.582 1.164-1.454 2.037-2.036zM83.49 116.074c-.872-.291-1.454-.582-2.326-.873-10.182-3.782-20.655-4.363-30.255-1.745-2.036.582-4.073 1.163-6.109 2.036l-6.982 3.2-1.745.873 5.818 2.036 5.236 1.746.873.291.873-.291c.872-.291 1.745-.873 2.618-.873.582 0 1.163-.291 1.745-.582 6.982-1.745 14.546-1.745 22.691.873.873.291 1.455.582 2.327.873l1.455.581.873-.291c2.036-.581 4.363-1.163 6.109-2.036l8.145-2.909-8.436-2.036c-.873-.291-2.036-.582-2.91-.873zM128 55.855l-4.364 4.363-1.745 1.746c-11.927 11.345-31.127 23.563-52.655 15.418-10.182-3.782-20.654-4.364-30.254-1.746-9.018 2.618-17.164 7.273-24.437 14.255l-3.781 4.073L9.6 95.418l1.164 1.746c.872 1.163 1.454 2.036 2.036 3.2l1.745 2.618 2.037-2.618 1.163-1.164c6.982-7.564 14.546-12.218 23.273-14.546 7.855-2.036 16.291-1.745 24.727 1.455 7.273 2.618 14.837 3.49 22.4 2.618 13.382-1.454 26.764-9.018 36.655-17.454.582-.582 1.164-.873 1.745-1.455l.873-.873v-.872c0-1.746.291-3.782.291-5.528l.291-6.69z"/><path d="M17.454 29.092c1.746-.873 3.782-1.454 5.528-2.036 7.854-2.037 16.29-1.746 24.727 1.454 5.527 2.037 11.055 2.91 17.164 2.91 12.218 0 24.436-4.364 35.782-12.8l4.363-3.492 1.455-1.163-2.618-2.037c-.873-.872-2.037-1.745-3.2-2.327l-1.746-1.164-1.454 1.164c-.582.291-.873.873-1.455 1.164C80.582 22.4 65.164 25.6 50.618 20.074c-10.473-3.782-20.945-4.655-31.418-1.455-.873.291-1.745.582-2.91.873l-.58.291-.874.873c0 .29-.29.29-.581.582-1.164 1.745-2.619 3.2-3.782 4.945l-5.528 8.436 9.019-4.654c1.454 0 2.618-.582 3.49-.873zM41.31 9.309l.872.291c3.782 1.455 9.6 2.91 16.872 2.91 7.564 0 14.837-1.746 22.11-4.656l9.018-4.363-6.11-2.036C82.328.873 80.583.29 78.546 0h-.872L76.8.29c-.873.292-1.745.874-2.618 1.165-8.728 3.2-17.455 3.781-25.891 1.454-.873-.29-1.745-.582-2.618-.873l-.873-.29-.873.29c-1.745.582-3.49 1.164-5.236 2.037L32 6.982l6.982 2.036c.582-.29 1.454 0 2.327.291z"/></svg><svg viewBox="0 0 60 60" id="link" xmlns="http://www.w3.org/2000/svg"><rect width="60" height="60" rx="10"/><path d="M34.35 20.531c1.673-1.68 4.12-1.715 5.476-.355 1.358 1.363 1.321 3.826-.354 5.507l-2.827 2.84a.875.875 0 101.24 1.234l2.827-2.839c2.23-2.238 2.51-5.812.354-7.977-2.16-2.167-5.725-1.884-7.956.355l-5.656 5.678c-2.23 2.238-2.51 5.812-.353 7.977a.875.875 0 101.24-1.235c-1.358-1.363-1.321-3.826.353-5.507l5.656-5.678z"/><path d="M32.9 27.05a.875.875 0 10-1.24 1.234c1.357 1.363 1.32 3.826-.354 5.507L25.65 39.47c-1.673 1.68-4.12 1.715-5.476.355-1.358-1.363-1.321-3.826.354-5.508l2.827-2.838a.875.875 0 10-1.24-1.235l-2.827 2.838c-2.23 2.239-2.51 5.813-.354 7.978 2.16 2.167 5.725 1.884 7.956-.355l5.656-5.678c2.23-2.238 2.51-5.812.353-7.977z"/></svg><svg viewBox="0 0 60 60" id="settings" xmlns="http://www.w3.org/2000/svg"><rect width="60" height="60" rx="10"/><path fill-rule="evenodd" clip-rule="evenodd" d="M32.659 18.511c-.432-.178-.98-.178-2.076-.178-1.095 0-1.643 0-2.075.178a2.342 2.342 0 00-1.272 1.263c-.11.26-.152.564-.169 1.007-.024.65-.36 1.253-.928 1.579-.569.325-1.262.313-1.842.009-.395-.207-.681-.323-.963-.36a2.364 2.364 0 00-1.738.463c-.372.282-.645.753-1.193 1.695-.548.941-.822 1.412-.883 1.872a2.32 2.32 0 00.466 1.725c.173.224.417.413.795.648.555.347.913.937.913 1.588s-.358 1.241-.913 1.588c-.378.235-.622.424-.795.648a2.32 2.32 0 00-.466 1.725c.061.46.335.93.883 1.872.548.942.821 1.413 1.192 1.695.495.377 1.12.543 1.739.462.282-.036.568-.151.963-.359.58-.304 1.273-.316 1.841.01.569.325.905.927.93 1.578.016.443.059.746.168 1.007a2.342 2.342 0 001.272 1.263c.432.178.98.178 2.075.178 1.096 0 1.644 0 2.076-.178a2.342 2.342 0 001.272-1.263c.109-.26.152-.564.168-1.007.025-.65.361-1.253.93-1.578.567-.326 1.261-.314 1.841-.01.395.207.68.322.963.36a2.364 2.364 0 001.738-.463c.371-.282.645-.753 1.193-1.695.547-.941.821-1.412.882-1.872a2.32 2.32 0 00-.465-1.725c-.174-.224-.417-.413-.795-.648-.556-.347-.913-.937-.913-1.588s.358-1.241.913-1.588c.378-.235.621-.424.795-.648a2.32 2.32 0 00.466-1.725c-.061-.46-.335-.93-.883-1.872-.548-.942-.822-1.413-1.193-1.695a2.364 2.364 0 00-1.738-.462c-.282.037-.568.152-.963.359-.58.304-1.274.316-1.842-.01-.568-.325-.904-.927-.929-1.578-.016-.443-.06-.746-.168-1.007a2.342 2.342 0 00-1.272-1.263zM30.583 33.5c1.948 0 3.527-1.567 3.527-3.5s-1.579-3.5-3.527-3.5c-1.947 0-3.526 1.567-3.526 3.5s1.579 3.5 3.526 3.5z"/></svg></svg>