<svg width="60" height="60" viewBox="0 0 60 60" fill="none" xmlns="http://www.w3.org/2000/svg">
<rect width="60" height="60" rx="10" fill="#111723"/>
<path fill-rule="evenodd" clip-rule="evenodd" d="M17.4167 16.5104C16.9162 16.5104 16.5104 16.9161 16.5104 17.4166C16.5104 17.9171 16.9162 18.3229 17.4167 18.3229H19.8334V27.6875C19.8334 31.3899 19.8334 33.2412 21.0468 34.3914C22.2602 35.5416 24.2131 35.5416 28.1191 35.5416H28.5938V39.8149L26.6781 40.7727C26.2304 40.9965 26.0489 41.5409 26.2728 41.9886C26.4966 42.4362 27.041 42.6177 27.4886 42.3939L29.5 41.3882L31.5114 42.3939C31.9591 42.6177 32.5034 42.4362 32.7273 41.9886C32.9511 41.5409 32.7696 40.9965 32.322 40.7727L30.4063 39.8149V35.5416H30.881C34.7869 35.5416 36.7399 35.5416 37.9533 34.3914C39.1667 33.2412 39.1667 31.39 39.1667 27.6875V18.3229H41.5834C42.0839 18.3229 42.4896 17.9171 42.4896 17.4166C42.4896 16.9161 42.0839 16.5104 41.5834 16.5104H17.4167ZM33.7658 24.63C34.1197 24.9839 34.1197 25.5577 33.7658 25.9116L32.1742 27.5033C31.999 27.6786 31.8095 27.8682 31.6281 28.0067C31.4155 28.1689 31.1113 28.3435 30.7084 28.3435C30.3054 28.3435 30.0012 28.1689 29.7886 28.0067C29.6072 27.8682 29.4177 27.6786 29.2425 27.5033L28.5053 26.766C28.4206 26.6814 28.352 26.6128 28.2917 26.5544C28.2314 26.6128 28.1627 26.6814 28.0781 26.766L26.5158 28.3283C26.1619 28.6822 25.5881 28.6822 25.2342 28.3283C24.8803 27.9744 24.8803 27.4006 25.2342 27.0466L26.8259 25.455C27.0011 25.2796 27.1905 25.0901 27.372 24.9516C27.5845 24.7894 27.8887 24.6148 28.2917 24.6148C28.6946 24.6148 28.9988 24.7894 29.2114 24.9516C29.3929 25.09 29.5823 25.2796 29.7574 25.4549L30.4947 26.1922C30.5794 26.2769 30.6481 26.3455 30.7084 26.4039C30.7687 26.3455 30.8373 26.2769 30.922 26.1922L32.4842 24.63C32.8381 24.2761 33.4119 24.2761 33.7658 24.63Z" fill="#709DFF"/>
</svg>
