<svg width="60" height="60" viewBox="0 0 60 60" fill="none" xmlns="http://www.w3.org/2000/svg">
<rect width="60" height="60" rx="10" fill="#111723"/>
<path d="M34.3498 20.5312C36.0232 18.8513 38.4709 18.816 39.8259 20.1763C41.1835 21.5392 41.147 24.0023 39.4725 25.6833L36.6447 28.5221C36.3036 28.8645 36.3047 29.4185 36.6471 29.7596C36.9894 30.1006 37.5434 30.0995 37.8845 29.7572L40.7123 26.9184C42.9421 24.6799 43.2221 21.106 41.0658 18.9413C38.9069 16.774 35.3409 17.0565 33.11 19.2962L27.4543 24.9737C25.2245 27.2122 24.9446 30.7861 27.1009 32.9508C27.4419 33.2932 27.9959 33.2942 28.3383 32.9532C28.6807 32.6121 28.6817 32.0581 28.3407 31.7158C26.9831 30.3529 27.0197 27.8897 28.6942 26.2087L34.3498 20.5312Z" fill="#709DFF"/>
<path d="M32.8991 27.0491C32.558 26.7067 32.004 26.7056 31.6617 27.0467C31.3193 27.3877 31.3182 27.9418 31.6593 28.2841C33.0169 29.647 32.9803 32.1101 31.3058 33.7911L25.6502 39.4687C23.9768 41.1486 21.5291 41.1839 20.174 39.8235C18.8164 38.4607 18.853 35.9975 20.5275 34.3165L23.3553 31.4777C23.6964 31.1353 23.6953 30.5813 23.3529 30.2403C23.0106 29.8992 22.4566 29.9003 22.1155 30.2427L19.2877 33.0815C17.0578 35.32 16.7779 38.8939 18.9342 41.0586C21.0931 43.2258 24.6591 42.9434 26.8901 40.7037L32.5456 35.0261C34.7755 32.7876 35.0554 29.2138 32.8991 27.0491Z" fill="#709DFF"/>
</svg>
