<svg width="60" height="60" viewBox="0 0 60 60" fill="none" xmlns="http://www.w3.org/2000/svg">
<rect width="60" height="60" rx="10" fill="#111723"/>
<path fill-rule="evenodd" clip-rule="evenodd" d="M32.6586 18.511C32.2265 18.3334 31.6788 18.3334 30.5833 18.3334C29.4879 18.3334 28.9401 18.3334 28.5081 18.511C27.932 18.7478 27.4743 19.202 27.2357 19.7738C27.1267 20.0348 27.0841 20.3383 27.0674 20.781C27.0429 21.4317 26.7067 22.0339 26.1385 22.3595C25.5704 22.685 24.8767 22.6728 24.2967 22.3686C23.902 22.1616 23.6159 22.0464 23.3337 22.0096C22.7154 21.9288 22.0902 22.095 21.5955 22.4718C21.2245 22.7543 20.9506 23.2251 20.4029 24.1666C19.8551 25.1082 19.5813 25.5789 19.5202 26.0391C19.4388 26.6526 19.6064 27.2731 19.986 27.7641C20.1592 27.9882 20.4027 28.1766 20.7807 28.4122C21.3362 28.7587 21.6937 29.3489 21.6937 30.0001C21.6936 30.6512 21.3362 31.2413 20.7807 31.5877C20.4027 31.8234 20.1591 32.0118 19.9859 32.2359C19.6063 32.7269 19.4387 33.3474 19.5201 33.9609C19.5812 34.4211 19.855 34.8918 20.4028 35.8334C20.9505 36.7749 21.2244 37.2457 21.5954 37.5282C22.0901 37.905 22.7153 38.0712 23.3335 37.9904C23.6157 37.9536 23.9019 37.8385 24.2966 37.6314C24.8766 37.3272 25.5703 37.315 26.1385 37.6406C26.7067 37.9662 27.0429 38.5684 27.0674 39.2191C27.0841 39.6618 27.1267 39.9653 27.2357 40.2263C27.4743 40.798 27.932 41.2523 28.5081 41.4891C28.9401 41.6667 29.4879 41.6667 30.5833 41.6667C31.6788 41.6667 32.2265 41.6667 32.6586 41.4891C33.2347 41.2523 33.6924 40.798 33.931 40.2263C34.04 39.9653 34.0826 39.6618 34.0993 39.219C34.1238 38.5684 34.46 37.9662 35.0281 37.6406C35.5963 37.315 36.29 37.3271 36.87 37.6314C37.2647 37.8384 37.5508 37.9535 37.833 37.9904C38.4512 38.0711 39.0765 37.9049 39.5712 37.5281C39.9422 37.2456 40.216 36.7748 40.7638 35.8333C41.3115 34.8918 41.5854 34.421 41.6464 33.9608C41.7278 33.3473 41.5603 32.7268 41.1807 32.2358C41.0074 32.0117 40.7639 31.8233 40.3859 31.5876C39.8304 31.2412 39.473 30.6511 39.473 29.9999C39.473 29.3489 39.8305 28.7588 40.3859 28.4124C40.764 28.1767 41.0075 27.9883 41.1808 27.7642C41.5604 27.2732 41.7279 26.6527 41.6465 26.0392C41.5855 25.579 41.3116 25.1082 40.7639 24.1667C40.2162 23.2252 39.9423 22.7544 39.5713 22.4719C39.0766 22.0951 38.4513 21.9289 37.8331 22.0096C37.5509 22.0465 37.2648 22.1616 36.8701 22.3686C36.2901 22.6729 35.5964 22.6851 35.0282 22.3595C34.46 22.0339 34.1238 21.4316 34.0993 20.781C34.0826 20.3383 34.0399 20.0348 33.931 19.7738C33.6924 19.202 33.2347 18.7478 32.6586 18.511ZM30.5833 33.5C32.531 33.5 34.11 31.933 34.11 30C34.11 28.067 32.531 26.5 30.5833 26.5C28.6356 26.5 27.0567 28.067 27.0567 30C27.0567 31.933 28.6356 33.5 30.5833 33.5Z" fill="#709DFF"/>
</svg>
